<?xml version="1.0" encoding="UTF-8" standalone="no"?>
<svg
   version="1.1"
   height="568.88px"
   width="588.42px"
   id="svg1"
   sodipodi:docname="pi.svg"
   inkscape:version="1.3.2 (091e20ef0f, 2023-11-25, custom)"
   xmlns:inkscape="http://www.inkscape.org/namespaces/inkscape"
   xmlns:sodipodi="http://sodipodi.sourceforge.net/DTD/sodipodi-0.dtd"
   xmlns="http://www.w3.org/2000/svg"
   xmlns:svg="http://www.w3.org/2000/svg">
  <defs
     id="defs1" />
  <sodipodi:namedview
     id="namedview1"
     pagecolor="#505050"
     bordercolor="#ffffff"
     borderopacity="1"
     inkscape:showpageshadow="0"
     inkscape:pageopacity="0"
     inkscape:pagecheckerboard="1"
     inkscape:deskcolor="#505050"
     inkscape:zoom="0.56359928"
     inkscape:cx="-79.843963"
     inkscape:cy="153.47784"
     inkscape:window-width="931"
     inkscape:window-height="1001"
     inkscape:window-x="0"
     inkscape:window-y="0"
     inkscape:window-maximized="1"
     inkscape:current-layer="svg1" />
  <path
     style="fill:#000000;stroke:none;stroke-width:0.438891"
     d="m -124.11162,520.11331 9.07418,0.67216 c 9.41027,-10.64256 13.10715,-42.12213 68.560486,-35.96065 -2.016485,134.88044 -61.166706,149.10786 -57.469816,176.77851 1.34432,15.68377 13.779314,25.31809 27.222544,25.87822 42.458211,-1.45635 40.553753,-58.70211 53.772928,-202.99281 h 54.78117 c -2.9127,50.86023 -10.86661,101.72046 -11.76282,151.57245 0.67216,33.15997 20.83701,50.86023 47.38739,51.08428 43.690508,1.45635 57.469818,-49.51591 57.469818,-71.24913 H 115.514 c -0.89622,17.92431 -9.52229,30.80741 -27.894708,31.5916 -50.07604,0.67216 -22.51742,-88.05318 -22.18134,-162.32704 l 59.486308,0.33608 -0.33608,-37.97713 c -247.24803,-1.19767 -215.865212,-6.04487 -248.6998,72.59346 z"
     id="path1" />
</svg>
